<svg width="256" height="256" preserveAspectRatio="xMidYMid" xmlns="http://www.w3.org/2000/svg"><path d="M127 256A129 129 0 0 1 0 127C.4 57.8 58-.5 129.1 0 198.3.5 256.6 57.9 256 128.2c.6 69.7-58 128.3-129 127.8Zm0 0A129 129 0 0 1 0 127C.4 57.8 58-.5 129.1 0 198.3.5 256.6 57.9 256 128.2c.6 69.7-58 128.3-129 127.8Z" fill="#FFF" style="fill-opacity:1;fill:#000"/><path d="M127.2 239A111.8 111.8 0 0 1 17 127.1c.4-60 50.3-110.5 112-110.1 60 .4 110.5 50.2 110 111.2A111.4 111.4 0 0 1 127.2 239Zm0 0A111.8 111.8 0 0 1 17 127.1c.4-60 50.3-110.5 112-110.1 60 .4 110.5 50.2 110 111.2A111.4 111.4 0 0 1 127.2 239Z" fill="#49A32B" style="fill-opacity:1;fill:#49a32b"/><path d="M169.3 128c-.3 5.2-4.9 9.6-9.4 8.9h-.1c-5 0-9.1-4.1-9.1-9.2.1-5 4.3-9 9.4-9 5 .1 9.5 4.4 9.2 9.3Zm-81.1 51.2h6V193c-13.6 2.3-24.9-1.5-27.6-13-1-4.3-1.5-8.6-1.8-13-.3-4.5.3-9.2 0-13.8-1-12.6-2.7-16.9-14.8-17.5V120l2.6-.4c6.7-.4 9.5-2.4 11-9 .6-3.6 1-7.3 1.1-11 .6-7.3.4-14.6 1.6-21.7C68 67.6 74.4 62.6 84.9 62c3-.2 6 0 9.4 0v14l-4 .3c-8.5-.3-9 2.7-9.6 9.8-.4 4.4.2 9-.1 13.4-.4 4.5-1 8.9-1.8 13.3-1.3 6.3-5.1 11-10.6 15 10.5 6.8 11.7 17.4 12.4 28.2.4 5.8.2 11.6.8 17.4.5 4.4 2.2 5.6 6.8 5.7Zm8.8-60.4h.2a9 9 0 0 1 9 9.7 8.9 8.9 0 0 1-10 8.4 9 9 0 0 1 .8-18.1Zm31.3 0c5.5 0 9.1 3.5 9.1 9s-3.4 9-8.8 9c-5.6 0-9.2-3.4-9.3-8.8v-.8a8.7 8.7 0 0 1 9-8.4Zm65.4-6.9c1.4 5.5 4.3 7.4 10 7.6 1 0 1.9.2 3.2.4v15.7l-2.2.5c-7.7.5-11.2 3.6-12 11.3-.4 5-.4 10-.7 14.9-.2 5.4-.7 10.8-1.5 16.1-2 9.7-8 14.6-18 15.2-3.3.2-6.5 0-10 0v-14l5.2-.3c6-.2 8.1-2.1 8.4-8l.7-19.6c.5-9.5 3-17.9 11.8-23.8-5-3.6-9-8-10-13.8-1.3-7-1.7-14.3-2.4-21.5-.4-3.6-.3-7.2-.7-10.8-.4-4-3-5.3-6.6-5.3h-6.6V62.7c16.5-2.8 27.9 2.7 29 18.5.4 6.6.3 13.3.8 20 .1 3.5.7 7.1 1.6 10.6Z" fill="#FFF" style="fill-opacity:1;fill:#000"/></svg>