<svg version="1.0" xmlns="http://www.w3.org/2000/svg" width="572" height="572" viewBox="0 0 429 429"><path d="M381.5 2.3c-7.3 2.5-12.2 5.6-16.8 10.7-5.7 6.4-8.9 14.3-9.1 23.1l-.1 6.6-27.8 24.7c-15.2 13.5-27.7 24.8-27.7 25 0 .2 4.3 3.9 9.6 8.2 5.7 4.6 12.9 11.8 17.7 17.7l8.1 9.9 2.5-2.9c1.3-1.5 12.5-14.1 24.8-27.9l22.4-25.2 8.2-.4c13.8-.8 23.9-7.4 29.9-19.6 3-6 3.3-7.5 3.3-15.7 0-7.9-.3-9.7-2.9-14.9-6.1-12.5-17-19.7-30.6-20.3-4.4-.2-9.1.3-11.5 1zm34.3 28.1c7.6 8.4 1.6 21.9-9.9 21.9-8.1 0-14.7-7.5-13.4-15.1 1.9-11.4 15.4-15.3 23.3-6.8zM211 68.6c-8.6 8.7-14 14.8-13.2 15.1.7.3 8.3 4 17 8.3 52 26 96.2 70.5 122.2 123.2l7.7 15.6 14.6-14.6 14.7-14.7-10.4-18c-24-41.9-40.7-64.9-56.9-78.2-9.5-7.8-30.1-21.9-45.7-31.3-8.7-5.2-34.8-20-35.4-20-.1 0-6.6 6.6-14.6 14.6z"/><path d="m170.4 192.5-77.9 73.3L50 340.6c-23.4 41.1-44 77.5-45.8 80.7l-3.3 6 3.3-2c1.8-1 38.3-21.7 81-45.8l77.7-43.9 72.8-76.9c40-42.2 72.9-77.2 73.1-77.7.4-1.1-10.4-14.6-20.7-25.9-8.9-9.8-22.2-22.1-33.4-30.9l-6.5-5-77.8 73.3zm96.9-30.3c.2.7-.2 2.5-.9 3.9-1.7 3.3-153.1 153.8-156.2 155.2-3.2 1.5-4.6-.7-2.7-4.2 1.2-2.4 26.4-27.6 123-123.4 18.2-18 33.8-32.7 34.7-32.7.9 0 1.8.6 2.1 1.2z"/></svg>