<svg xmlns="http://www.w3.org/2000/svg" width="64" height="64"><g transform="scale(1.9656)" style="fill:none;fill-rule:nonzero;stroke:none;stroke-width:1"><circle cx="16.28" cy="16.28" r="16.28" style="fill:#29abe0"/><path d="M22.26 8.8h1.6c3.1 0 5.62 2.51 5.62 5.61v.33c0 3.1-2.51 5.62-5.61 5.62h-1.61v1.69a2.6 2.6 0 0 1-2.6 2.59H7.44a2.6 2.6 0 0 1-2.59-2.6V10.1c0-.72.58-1.3 1.3-1.3Zm0 3v5.56h1.46a2.78 2.78 0 1 0 0-5.56z" style="fill:#fff"/></g><path d="M8.36 5.28c.4-1.17 1.35-1.76 2.85-1.76 2.24 0 3.07 2.8 1.9 4.62-.79 1.22-2.37 2.76-4.75 4.62-2.38-1.86-3.96-3.4-4.75-4.62-1.17-1.83-.34-4.62 1.9-4.62 1.5 0 2.45.59 2.85 1.76Z" transform="translate(9.51 17.3) scale(1.9656)" style="fill:#ff5e5b;fill-rule:nonzero;stroke:none;stroke-width:1"/></svg>